<svg width="40" height="40" viewBox="0 0 40 40" fill="none" xmlns="http://www.w3.org/2000/svg">
<circle cx="20" cy="20" r="20" fill="#242424"/>
<path d="M15.2975 30H11.3768V17.3333H15.2975V30ZM13.3185 15.6745C12.038 15.6745 11 14.628 11 13.3373C11 12.0464 12.0382 11 13.3185 11C14.5988 11 15.6369 12.0464 15.6369 13.3373C15.6369 14.6281 14.5989 15.6745 13.3185 15.6745ZM29.9904 30H26.0887V23.351C26.0887 21.5274 25.396 20.5095 23.954 20.5095C22.3847 20.5095 21.5648 21.5697 21.5648 23.351V30H17.8044V17.3333H21.5648V19.0393C21.5648 19.0393 22.6959 16.9469 25.3818 16.9469C28.0677 16.9469 29.9905 18.5869 29.9905 21.9796L29.9904 30Z" fill="white"/>
</svg>
