<svg width="145" height="31" viewBox="0 0 145 31" fill="none" xmlns="http://www.w3.org/2000/svg">
<path d="M5.66469 14.76V6.64H10.1047C13.2647 6.64 14.6647 8.16 14.6647 10.72C14.6647 13.2 13.2647 14.76 10.1047 14.76H5.66469ZM20.4247 10.72C20.4247 5.88 17.0647 2.08 10.3447 2.08H0.0646877V30H5.66469V19.28H10.3447C17.5447 19.28 20.4247 14.96 20.4247 10.72ZM30.0006 18.96C30.0006 14.68 32.0006 13.4 35.3206 13.4H36.8006V7.52C33.7206 7.52 31.4006 9 30.0006 11.28V7.84H24.4006V30H30.0006V18.96ZM61.9725 18.92C61.9725 11.92 56.9725 7.48 50.5725 7.48C44.1725 7.48 39.1725 11.92 39.1725 18.92C39.1725 25.88 44.0125 30.36 50.4125 30.36C56.8525 30.36 61.9725 25.88 61.9725 18.92ZM44.8525 18.92C44.8525 14.48 47.5325 12.36 50.4925 12.36C53.4525 12.36 56.2125 14.48 56.2125 18.92C56.2125 23.32 53.3725 25.48 50.4125 25.48C47.4125 25.48 44.8525 23.32 44.8525 18.92ZM91.8116 2.04H75.6116V30H91.8116V25.44H81.2116V18.04H90.6116V13.6H81.2116V6.6H91.8116V2.04ZM95.4606 18.84C95.4606 25.76 99.9406 30.36 105.581 30.36C109.061 30.36 111.541 28.76 112.861 26.72V30H118.541V0.4H112.861V10.92C111.341 8.84 108.541 7.48 105.621 7.48C99.9406 7.48 95.4606 11.92 95.4606 18.84ZM112.901 18.92C112.901 23.12 110.101 25.44 107.021 25.44C104.021 25.44 101.181 23.04 101.181 18.84C101.181 14.64 104.021 12.4 107.021 12.4C110.101 12.4 112.901 14.72 112.901 18.92ZM144.93 7.84H139.29V20.04C139.29 23.6 137.37 25.52 134.33 25.52C131.37 25.52 129.41 23.6 129.41 20.04V7.84H123.81V20.84C123.81 26.92 127.53 30.28 132.69 30.28C135.45 30.28 137.89 29.08 139.29 27.2V30H144.93V7.84Z" fill="#4A4A4A"/>
</svg>
