<svg width="40" height="40" viewBox="0 0 40 40" fill="none" xmlns="http://www.w3.org/2000/svg">
<circle cx="20" cy="20" r="20" fill="#242424"/>
<path d="M27.9972 18.6871C27.8348 18.7021 27.6719 18.7101 27.5088 18.7108C26.6282 18.7109 25.7614 18.5013 24.9867 18.1008C24.212 17.7004 23.5537 17.1218 23.0714 16.4172V24.2274C23.0714 25.3691 22.7174 26.4852 22.0542 27.4345C21.391 28.3838 20.4483 29.1237 19.3454 29.5606C18.2426 29.9975 17.029 30.1118 15.8582 29.8891C14.6874 29.6663 13.6119 29.1166 12.7678 28.3093C11.9237 27.5019 11.3489 26.4734 11.116 25.3536C10.8831 24.2338 11.0026 23.0732 11.4594 22.0184C11.9163 20.9636 12.6899 20.062 13.6824 19.4277C14.675 18.7934 15.8419 18.4549 17.0357 18.4549C17.1617 18.4549 17.2848 18.4657 17.4087 18.4731V21.3178C17.2848 21.3036 17.1631 21.2819 17.0357 21.2819C16.2187 21.2819 15.4352 21.5923 14.8575 22.1448C14.2798 22.6973 13.9552 23.4467 13.9552 24.2281C13.9552 25.0095 14.2798 25.7589 14.8575 26.3114C15.4352 26.8639 16.2187 27.1743 17.0357 27.1743C18.7373 27.1743 20.24 25.8921 20.24 24.2647L20.2698 11H23.1153C23.2453 12.1825 23.8057 13.2836 24.6986 14.1109C25.5916 14.9381 26.7601 15.4389 28 15.5256V18.6871" fill="white"/>
</svg>
