<svg width="40" height="40" viewBox="0 0 40 40" fill="none" xmlns="http://www.w3.org/2000/svg">
<circle cx="20" cy="20" r="20" fill="#242424"/>
<path d="M31 13.2497C30.1909 13.6306 29.3218 13.888 28.4082 14.0043C29.3402 13.4113 30.0553 12.4702 30.3925 11.35C29.5205 11.8999 28.5545 12.2993 27.5265 12.5135C26.7029 11.5828 25.5305 11 24.2322 11C21.7401 11 19.719 13.1477 19.719 15.7979C19.7191 16.1652 19.7581 16.5313 19.8353 16.8893C16.0827 16.6885 12.7584 14.7786 10.5318 11.8772C10.1443 12.5876 9.92143 13.4113 9.92143 14.2885C9.92143 15.9523 10.7189 17.4215 11.929 18.2813C11.2123 18.257 10.5114 18.0512 9.88462 17.681V17.7428C9.88462 20.0665 11.4397 22.0053 13.5054 22.4459C13.1178 22.5571 12.718 22.6132 12.3166 22.6127C12.0315 22.613 11.747 22.5847 11.4669 22.5283C12.0414 24.433 13.708 25.8209 15.6835 25.858C14.1381 27.1449 12.1916 27.912 10.0774 27.912C9.71312 27.912 9.35365 27.8893 9 27.845C10.9979 29.2073 13.3698 30 15.918 30C24.2215 30 28.7609 22.692 28.7609 16.3538C28.7609 16.1479 28.756 15.9399 28.7473 15.734C29.629 15.0565 30.3944 14.2133 30.998 13.2527L31 13.2497Z" fill="white"/>
</svg>
