<svg width="178" height="25" viewBox="0 0 178 25" fill="none" xmlns="http://www.w3.org/2000/svg">
<path d="M89.298 7.93601C89.4066 5.8485 90.1549 4.14231 91.3246 2.81118V1.03819H89.7701C86.6278 1.03819 83.9679 2.24268 82.4214 4.9634H82.331V1.3374H74.2715V23.4493H82.3327V14.5228C82.3327 10.734 83.4412 7.84555 87.9144 7.84555C88.4014 7.84903 88.8572 7.87686 89.298 7.93601V7.93601ZM150.33 7.85529C150.999 5.90104 152.085 4.1604 153.497 2.76386V1.03645H151.945C148.801 1.03645 146.144 2.24024 144.59 4.95992H144.503V1.3374H136.438V23.4493H144.503V14.5228C144.503 10.734 145.615 7.84555 150.088 7.84555L150.33 7.85529V7.85529ZM105.668 7.0262C104.425 6.37977 102.694 5.9487 101.317 5.9487C100.392 5.9487 98.7948 6.3335 98.7948 7.45727C98.7948 8.96724 101.317 9.18121 102.432 9.40179C106.19 10.1324 109.032 11.8581 109.032 15.9475C109.032 21.7647 103.582 24.1862 98.3067 24.1862C95.0707 24.1862 91.8876 23.2799 89.1366 21.6412L92.0601 16.1632C93.6971 17.2884 96.4443 18.4052 98.4382 18.4052C99.4579 18.4052 100.963 17.9331 100.963 16.7258C100.963 15.0015 98.4382 14.9111 95.9095 14.266C93.3878 13.6196 90.8657 12.4155 90.8657 8.44919C90.8657 3.01714 95.9095 0.607117 100.881 0.607117C103.451 0.607117 106.022 0.993306 108.365 2.02836L105.669 7.0262H105.668ZM177.671 23.4493H169.61V20.9895H169.521C168.104 23.1877 165.307 24.1779 162.653 24.1779C155.915 24.1779 151.178 18.703 151.178 12.366C151.178 6.03568 155.831 0.601898 162.563 0.601898C165.175 0.601898 167.926 1.54963 169.609 3.48753V1.3374H177.668L177.672 23.4493H177.671ZM159.508 12.4137C159.508 15.2138 161.416 17.3691 164.69 17.3691C167.967 17.3691 169.867 15.2172 169.867 12.4137C169.867 9.69787 167.967 7.41413 164.69 7.41413C161.416 7.41622 159.508 9.69787 159.508 12.4137ZM135.167 13.7101H118.194C118.194 16.897 119.927 18.6192 123.248 18.6192C124.975 18.6192 126.214 18.0615 127.102 16.5943H134.858C133.573 21.8106 128.476 24.1813 123.294 24.1813C115.768 24.1813 110.141 20.0404 110.141 12.4155C110.141 5.04551 115.318 0.607117 122.717 0.607117C130.601 0.607117 135.17 5.34994 135.17 12.8893L135.166 13.7104L135.167 13.7101ZM127.678 9.18121C127.278 7.069 125.285 5.6902 123.116 5.6902C120.765 5.6902 118.824 6.89295 118.329 9.18121H127.678V9.18121ZM48.6309 12.0289C48.6222 11.84 48.6101 11.6513 48.5948 11.4629V11.4562C48.4138 9.40492 47.7361 7.48511 46.5862 5.75108C46.0797 4.98678 45.4905 4.28064 44.8292 3.64549C43.87 2.72246 42.7595 1.95913 41.5077 1.35549C39.624 0.455773 37.5428 0.00173959 35.322 0.00173959C35.1049 0.00173959 34.8777 0.00487086 34.6492 0.0132209C33.0898 0.0838482 31.5812 0.379927 30.1631 0.901456C28.7332 1.41811 27.488 2.10073 26.4696 2.92008C26.2626 3.08464 26.0371 3.28678 25.7953 3.5091L25.6207 3.67993L25.3824 3.93321H25.3855L25.2738 4.0435L25.2195 4.10265L24.9349 4.40221C24.7299 4.63283 24.5303 4.86821 24.3362 5.10813L24.3344 5.10465L24.3275 5.09804C23.9378 5.57191 23.5777 6.06212 23.3126 6.50294C23.1323 6.78768 22.9579 7.07617 22.7897 7.36821L20.4652 12.0686L20.4684 12.0717L20.3466 12.3104L20.0898 12.8302C19.5801 13.8617 19.0339 14.8898 18.4233 15.7388C17.0629 17.2306 15.5251 17.9613 13.5476 17.9613C13.4091 17.9613 13.2679 17.9543 13.1231 17.9463C11.9318 17.8986 10.9104 17.6175 10.004 17.081C9.90844 17.0246 9.81446 16.9654 9.72222 16.9036C8.9822 16.4116 8.41475 15.7798 7.99029 14.9918C7.51155 14.0983 7.29932 13.1854 7.32924 12.2182C7.33063 12.1917 7.33237 12.1688 7.33237 12.1472C7.39639 10.6077 7.98368 9.40979 9.1666 8.37508C9.44822 8.13366 9.75044 7.91736 10.0698 7.72865C10.114 7.70221 10.1585 7.67751 10.203 7.65454C11.0815 7.17581 12.0818 6.93749 13.2282 6.93749L13.5852 6.94723C15.4065 7.01646 16.8114 7.58566 17.9317 8.69586L21.4457 2.38707C20.6048 1.82448 19.6556 1.34053 18.6094 0.947381C18.5698 0.932768 18.5287 0.916068 18.4877 0.903195C18.3624 0.858662 18.2393 0.812736 18.1109 0.771334C16.9989 0.399758 15.8324 0.171176 14.6317 0.0674961C14.6018 0.0622773 14.5691 0.0591461 14.5395 0.0560148C14.3551 0.0441856 14.1676 0.021223 13.9835 0.0132209C13.7833 0.00555734 13.583 0.00114979 13.3827 0H13.2689C11.0596 0.00800211 9.0069 0.460643 7.12954 1.35688C5.02707 2.37037 3.32262 3.84623 2.05933 5.74761C0.799518 7.65002 0.111684 9.76084 0.0132228 12.0261C0.00476172 12.218 0.000353779 12.4099 1.96195e-06 12.6019C-0.00173763 15.7697 1.15335 18.5566 3.44961 20.896C5.84676 23.3505 8.96411 24.6733 12.7067 24.8295C12.9467 24.8393 13.184 24.8459 13.4206 24.8459C15.538 24.8459 17.4971 24.4691 19.2541 23.7158C19.6936 23.528 20.1198 23.3077 20.5553 23.0628C20.7926 22.9261 21.0163 22.7813 21.2383 22.6268L21.4029 22.5166L21.6791 22.3273C22.009 22.0884 22.3248 21.8307 22.6251 21.5556L22.7305 21.4554C22.9089 21.2873 23.0832 21.1151 23.2534 20.9387L23.8835 20.2266L24.1236 19.9253L24.2356 19.761L24.3477 19.5996C25.2836 18.027 28.3303 12.3038 28.3303 12.3038V12.2923L28.5112 11.9433L28.6625 11.6702C29.1117 10.8526 29.436 10.2719 29.8653 9.66168L29.8768 9.64359C30.8788 8.19103 32.601 7.15598 34.6311 6.98202C38.0365 6.68907 41.0206 8.92618 41.2954 11.9795C41.5686 15.0328 39.0284 17.7456 35.623 18.0402C34.9139 18.1011 34.2247 18.0535 33.5748 17.9101L33.5584 17.9171C31.0597 17.3969 29.4687 15.5742 28.6841 14.7597L25.4067 20.7857C25.4067 20.7857 26.4254 21.8124 27.123 22.3255C27.8223 22.837 28.7252 23.3408 29.4457 23.6532C31.1943 24.4002 33.0961 24.8476 35.1968 24.8476C35.4403 24.8476 35.3913 24.8476 35.6445 24.8379C39.3836 24.6813 42.7167 23.2486 45.1204 20.794C47.3972 18.463 48.6327 15.8014 48.6442 12.6506V12.5567C48.6422 12.3807 48.6378 12.2048 48.6309 12.0289V12.0289ZM61.1668 24.1963C59.4672 24.1963 57.9259 23.9987 56.5422 23.6038C55.1586 23.2089 53.9774 22.5854 52.9987 21.7303C52.0165 20.8744 51.2598 19.7854 50.7268 18.4647C50.1938 17.1437 49.9273 15.5512 49.9273 13.6954V1.33253H57.7036V13.5966C57.7036 14.9869 58.0359 15.9938 58.6986 16.6221C59.3635 17.2519 60.2076 17.5664 61.2308 17.5664C62.277 17.5664 63.1259 17.2734 63.781 16.6861C64.4323 16.0989 64.7611 15.125 64.7611 13.7563V1.33218H72.5374V13.5326C72.5374 15.4542 72.2647 17.0876 71.7198 18.4317C71.1753 19.7774 70.4071 20.8765 69.4183 21.7317C68.4247 22.5875 67.2289 23.2089 65.8223 23.6055C64.4156 23.9987 62.8643 24.196 61.1668 24.196V24.1963Z" fill="#002979"/>
</svg>
