<svg width="161" height="42" viewBox="0 0 161 42" fill="none" xmlns="http://www.w3.org/2000/svg">
<path d="M156.749 7.33216H157.457C157.796 7.33216 158.028 7.28114 158.152 7.18165C158.212 7.13411 158.259 7.07337 158.291 7.00428C158.323 6.93519 158.338 6.85965 158.335 6.7837C158.337 6.68148 158.305 6.58144 158.246 6.49799C158.185 6.41193 158.098 6.34672 157.999 6.31113C157.895 6.26648 157.698 6.24863 157.412 6.24863H156.749V7.33216ZM156.164 9.36403V5.75756H157.407C157.831 5.75756 158.14 5.79136 158.331 5.85705C158.521 5.92337 158.672 6.04072 158.785 6.20781C158.898 6.37171 158.955 6.54837 158.955 6.73332C158.955 6.99798 158.859 7.2263 158.671 7.42209C158.482 7.6166 158.231 7.72693 157.919 7.75053C158.047 7.80346 158.15 7.86724 158.227 7.94121C158.37 8.08216 158.549 8.32131 158.76 8.65677L159.2 9.36467H158.482L158.163 8.79516C157.909 8.35001 157.708 8.07004 157.558 7.95716C157.451 7.87234 157.297 7.82961 157.093 7.82961H156.749V9.36403H156.164ZM157.636 4.70591C157.163 4.70591 156.702 4.82708 156.254 5.06815C155.81 5.30672 155.445 5.66736 155.202 6.10705C154.955 6.53414 154.825 7.01832 154.824 7.51137C154.824 7.99542 154.947 8.45907 155.195 8.90422C155.444 9.34681 155.791 9.69248 156.239 9.93992C156.664 10.1837 157.146 10.3123 157.636 10.313C158.122 10.313 158.588 10.1893 159.033 9.93992C159.471 9.70066 159.832 9.34129 160.073 8.90422C160.316 8.47994 160.444 7.99997 160.445 7.51137C160.445 7.02413 160.319 6.55475 160.068 6.10705C159.826 5.66628 159.46 5.30514 159.016 5.06751C158.567 4.82645 158.106 4.70591 157.636 4.70591V4.70591ZM157.636 4.15234C158.201 4.15234 158.754 4.29711 159.291 4.58601C159.823 4.86813 160.26 5.29963 160.549 5.82707C160.851 6.36661 161 6.92719 161 7.51137C161 8.08917 160.853 8.64593 160.557 9.17972C160.269 9.70483 159.836 10.1368 159.31 10.4246C158.799 10.7132 158.223 10.8653 157.636 10.8659C157.049 10.8654 156.472 10.7134 155.961 10.4246C155.435 10.1359 155.003 9.70419 154.714 9.17972C154.423 8.6713 154.269 8.09657 154.267 7.51137C154.267 6.92719 154.418 6.36661 154.721 5.82707C155.011 5.30068 155.449 4.86972 155.98 4.58665C156.52 4.29711 157.07 4.15234 157.636 4.15234" fill="#808080"/>
<path fill-rule="evenodd" clip-rule="evenodd" d="M18.3316 0.00487839C16.6452 0.0495209 14.948 0.400921 13.3345 0.980635C7.08578 3.58138 2.74029 9.25608 0.774427 16.0647C0.44252 17.3427 0.173284 18.6221 0.0287544 19.9422C0.0287544 19.9849 -0.0748468 21.2847 0.111252 20.9339C0.29735 20.6252 0.379847 20.1705 0.483448 19.8191C1.43504 16.6214 2.59512 13.7114 4.37425 10.9467C8.63724 4.69361 15.4858 0.670689 22.727 2.89962C24.0725 3.35243 25.2723 4.01377 26.472 4.79757C26.699 4.96274 28.3752 6.28352 28.003 5.08647C27.6928 4.13877 26.9069 3.33202 26.2232 2.69236C23.9223 0.706403 21.1429 -0.0697383 18.3316 0.00487839V0.00487839ZM71.1829 6.2612C70.2109 6.2612 69.4665 6.59283 68.9485 7.27395C68.41 7.93338 68.1625 8.92445 68.1625 10.2248V19.6342C66.9621 18.314 65.7215 17.3638 64.4597 16.7228C63.5912 16.3048 62.6618 16.0265 61.706 15.8982C61.0756 15.8137 60.4401 15.7726 59.8041 15.7752C56.6385 15.7752 54.0516 16.888 52.1075 19.1157C50.1615 21.3446 49.1894 24.4409 49.1894 28.423C49.1894 30.3012 49.4388 32.0537 49.914 33.6634C50.4115 35.2731 51.1348 36.6755 52.0864 37.8725C53.0017 39.0298 54.1593 39.9738 55.4784 40.6385C56.7824 41.2762 58.1887 41.6078 59.7203 41.6078C60.4039 41.6078 61.0658 41.5441 61.706 41.421C62.1131 41.357 62.5145 41.2608 62.9063 41.1334C63.8754 40.8039 64.7893 40.3309 65.6172 39.7303C66.4665 39.1104 67.2934 38.3062 68.1625 37.3368V37.9542C68.1625 39.1321 68.4528 40.0192 69.0105 40.6582C69.5688 41.2768 70.3151 41.6078 71.1829 41.6078C72.0309 41.6078 72.7759 41.2985 73.3349 40.6997C73.8938 40.0804 74.1618 39.1736 74.1618 37.9542V9.89319C74.1618 8.71781 73.9143 7.80966 73.3963 7.1904C72.8597 6.57179 72.1141 6.2612 71.1829 6.2612V6.2612ZM149.267 6.2612C148.295 6.2612 147.55 6.59283 147.034 7.27395C146.516 7.93338 146.247 8.92445 146.247 10.2248V19.6342C145.047 18.314 143.805 17.3638 142.544 16.7228C141.758 16.3306 140.827 16.0436 139.792 15.8982C139.161 15.8136 138.525 15.7725 137.888 15.7752C134.724 15.7752 132.158 16.888 130.191 19.1157C128.247 21.3446 127.274 24.4409 127.274 28.423C127.274 30.3012 127.522 32.0537 128.018 33.6634C128.515 35.2731 129.218 36.6755 130.17 37.8725C131.086 39.0303 132.244 39.9743 133.564 40.6385C134.867 41.2762 136.275 41.6078 137.806 41.6078C138.508 41.6078 139.171 41.5441 139.792 41.421C140.206 41.3598 140.598 41.2571 140.991 41.1334C141.96 40.804 142.873 40.331 143.701 39.7303C144.55 39.1104 145.399 38.3062 146.246 37.3368V37.9542C146.246 39.1321 146.536 40.0192 147.095 40.6582C147.674 41.2768 148.398 41.6078 149.267 41.6078C150.158 41.6078 150.88 41.2985 151.441 40.6997C151.999 40.0804 152.289 39.1736 152.289 37.9542V9.89319C152.289 8.71781 152.02 7.80966 151.503 7.1904C150.965 6.57179 150.241 6.2612 149.267 6.2612H149.267ZM16.7009 7.97994C15.8262 7.95712 14.9599 8.15429 14.1818 8.55327C11.5956 9.85237 10.5603 13.0092 11.8847 15.5883C13.188 18.168 16.3523 19.2005 18.9392 17.8804C21.5254 16.58 22.5601 13.4231 21.2363 10.8453C20.811 10.0032 20.1646 9.29187 19.3659 8.78725C18.5672 8.28262 17.6461 8.00361 16.7009 7.97994V7.97994ZM88.7906 15.6916C86.9488 15.7127 85.2733 16.022 83.7423 16.5985C82.1691 17.219 80.846 18.1068 79.7703 19.242C78.6934 20.3963 77.8658 21.7802 77.3069 23.3886C76.748 24.9989 76.4589 26.7527 76.4589 28.6296C76.4589 32.6328 77.6177 35.768 79.8931 38.0989C82.0451 40.3081 85.0047 41.4624 88.7906 41.5855C89.0177 41.6072 89.2249 41.6078 89.4525 41.6078C91.2528 41.6078 92.8253 41.3802 94.2118 40.9063C95.5976 40.4306 96.7353 39.854 97.6453 39.1512C98.5771 38.4306 99.239 37.687 99.695 36.9229C100.15 36.1602 100.377 35.4797 100.377 34.9229C100.377 34.2833 100.171 33.7673 99.7775 33.4153C99.365 33.0658 98.8252 32.879 98.1838 32.879C97.5635 32.879 97.1094 33.0244 96.7769 33.2922C96.1405 33.8965 95.4924 34.4882 94.8328 35.0671C94.3117 35.5039 93.7657 35.9102 93.1975 36.2839C92.5964 36.6551 91.9978 36.9453 91.3557 37.1098C90.7354 37.2947 90.0319 37.3776 89.2664 37.3776C89.1002 37.3776 88.9352 37.3776 88.7906 37.3566C87.8397 37.2947 86.9488 37.0269 86.1431 36.5307C85.2113 35.9746 84.4451 35.15 83.8881 34.0767C83.3081 32.9625 83.0178 31.6832 82.9973 30.2393H95.494C97.1504 30.2393 98.4531 29.9919 99.3835 29.5378C100.295 29.0429 100.75 28.0104 100.75 26.4217C100.75 24.6883 100.315 22.997 99.4251 21.3261C98.5355 19.6744 97.1913 18.314 95.4122 17.2598C93.6318 16.2088 91.4792 15.6916 88.9978 15.6916H88.7906ZM114.344 15.6916C112.502 15.7127 110.805 16.022 109.295 16.5985C107.722 17.219 106.398 18.1068 105.3 19.242C104.245 20.3963 103.419 21.7802 102.861 23.3886C102.302 24.9989 102.012 26.7527 102.012 28.6296C102.012 32.6328 103.15 35.768 105.426 38.0989C107.576 40.3081 110.557 41.4624 114.344 41.5855C114.552 41.6072 114.777 41.6078 115.004 41.6078C116.785 41.6078 118.378 41.3802 119.764 40.9063C121.149 40.4306 122.288 39.854 123.198 39.1512C124.11 38.4306 124.791 37.687 125.247 36.9229C125.701 36.1602 125.93 35.4797 125.93 34.9229C125.93 34.2833 125.722 33.7673 125.308 33.4153C124.915 33.0658 124.378 32.879 123.716 32.879C123.115 32.879 122.66 33.0244 122.329 33.2922C121.522 34.0352 120.882 34.6334 120.385 35.0671C119.857 35.504 119.304 35.9103 118.729 36.2839C118.151 36.6551 117.529 36.9453 116.909 37.1098C116.267 37.2947 115.586 37.3776 114.819 37.3776C114.653 37.3776 114.488 37.3776 114.344 37.3566C113.391 37.2947 112.501 37.0269 111.694 36.5307C110.743 35.9746 109.998 35.15 109.419 34.0767C108.86 32.9625 108.57 31.6832 108.549 30.2393H121.025C122.701 30.2393 124.005 29.9919 124.915 29.5378C125.847 29.0429 126.301 28.0104 126.301 26.4217C126.301 24.6883 125.847 22.997 124.957 21.3261C124.067 19.6744 122.742 18.314 120.942 17.2598C119.162 16.2088 117.033 15.6916 114.528 15.6916H114.344ZM27.4447 15.7343C26.5136 15.7343 25.7883 16.043 25.2716 16.6412C24.7338 17.219 24.4646 18.1272 24.4646 19.344V37.7278C24.4646 38.965 24.7543 39.9357 25.3535 40.5964C25.9546 41.2762 26.6984 41.6078 27.6301 41.6078C28.5817 41.6078 29.3466 41.2762 29.9477 40.6385C30.5476 39.9778 30.8584 39.0269 30.8584 37.7278V29.7846C30.8584 27.1634 31.0029 25.4103 31.3131 24.4607C31.7473 23.2649 32.4521 22.337 33.3826 21.6558C34.3143 20.9951 35.3484 20.6444 36.4868 20.6444C38.223 20.6444 39.4029 21.2018 39.983 22.3146C40.5617 23.4301 40.8527 25.0378 40.8527 27.1437V37.7278C40.8527 38.965 41.1411 39.9357 41.7416 40.5964C42.3409 41.2762 43.107 41.6078 44.0586 41.6078C44.9891 41.6078 45.7546 41.2762 46.334 40.6161C46.914 39.9778 47.2236 39.0065 47.2236 37.7278V25.9058C47.2236 24.5034 47.1622 23.3465 47.0375 22.4594C46.9134 21.5513 46.6454 20.7069 46.2106 19.9218C45.5487 18.5813 44.576 17.5494 43.2515 16.8268C41.9271 16.1042 40.4179 15.7343 38.7411 15.7343C37.0029 15.7343 35.4719 16.0838 34.127 16.7656C32.8032 17.4665 31.583 18.5398 30.4434 20.0245V19.242C30.4434 18.499 30.3199 17.8593 30.0513 17.3223C29.7828 16.7866 29.4099 16.3938 28.9552 16.1253C28.4986 15.8568 28.0023 15.7343 27.4447 15.7343V15.7343ZM88.7708 20.1284H88.7906C90.4444 20.1284 91.79 20.6648 92.8036 21.7381C93.8396 22.8102 94.4177 24.4409 94.5827 26.6284H82.9967C83.225 24.483 83.8453 22.8523 84.8589 21.7592C85.8725 20.6654 87.1759 20.1284 88.7702 20.1284H88.7708ZM114.323 20.1284H114.344C115.999 20.1284 117.342 20.6648 118.355 21.7381C119.37 22.8102 119.97 24.4409 120.115 26.6284H108.55C108.756 24.483 109.377 22.8523 110.412 21.7592C111.426 20.6654 112.73 20.1284 114.323 20.1284ZM61.6254 20.4996H61.706C62.8027 20.4996 63.817 20.83 64.7277 21.4703C65.6793 22.1093 66.4256 23.0378 66.9832 24.2553C67.5223 25.4728 67.8114 26.9377 67.8114 28.6303C67.8114 30.4453 67.5223 31.951 66.9832 33.1475C66.4256 34.3445 65.6793 35.231 64.7488 35.8081C63.8375 36.3859 62.8027 36.6768 61.706 36.6768H61.6868C60.5696 36.6768 59.5547 36.3668 58.6235 35.7686C57.6732 35.15 56.948 34.2418 56.4108 33.0454C55.8723 31.828 55.6037 30.363 55.6037 28.6296C55.6037 26.9995 55.8531 25.555 56.3494 24.3376C56.8661 23.1003 57.5696 22.1501 58.5001 21.49C59.4108 20.8083 60.466 20.4996 61.6254 20.4996V20.4996ZM139.729 20.4996H139.792C140.889 20.4996 141.902 20.83 142.833 21.4703C143.764 22.1093 144.51 23.0378 145.068 24.2553C145.627 25.4728 145.896 26.9377 145.896 28.6303C145.896 30.4453 145.627 31.951 145.068 33.1475C144.51 34.3445 143.763 35.231 142.853 35.8081C141.937 36.3835 140.875 36.685 139.792 36.6768H139.772C138.655 36.6768 137.64 36.3668 136.709 35.7686C135.779 35.15 135.034 34.2418 134.496 33.0454C133.958 31.828 133.689 30.363 133.689 28.6296C133.689 26.9995 133.935 25.5557 134.453 24.3376C134.95 23.1003 135.675 22.1501 136.585 21.49C137.518 20.8083 138.551 20.4996 139.729 20.4996V20.4996ZM20.2438 20.7069C18.5874 21.6954 16.6433 22.2534 14.5745 22.2534C14.1409 22.2534 13.7265 22.2336 13.2916 22.1916V37.3776C13.2916 38.7807 13.6229 39.833 14.265 40.5351C14.9269 41.2571 15.7346 41.6078 16.7482 41.6078C17.7816 41.6078 18.6316 41.2571 19.2711 40.5556C19.9138 39.854 20.2438 38.8017 20.2438 37.3776V20.7075V20.7069Z" fill="#2164F3"/>
</svg>
