<svg width="150" height="42" viewBox="0 0 150 42" fill="none" xmlns="http://www.w3.org/2000/svg">
<g clip-path="url(#clip0_46_495)">
<path d="M116.79 22.1097V31.6396H112.534V17.6986H115.513L116.406 18.8014C119.468 16.4733 123.038 17.086 124.699 19.237L125.482 18.638C127.184 17.3447 129.079 17.0179 131.112 17.5625C132.389 17.9028 133.363 18.6789 133.803 19.9178C134.132 20.8708 134.421 21.8782 134.448 22.8721C134.531 25.6766 134.489 28.4811 134.489 31.2857C134.476 31.4218 134.462 31.5443 134.434 31.6669H130.178V29.2299V24.6964C130.178 24.4241 130.178 24.1382 130.15 23.8659C129.972 21.7421 128.764 20.9388 126.704 21.5923C126.333 21.7285 125.99 21.8918 125.647 22.0688V31.6396H121.308V30.6458V24.5466V24.2743C121.253 21.6195 119.605 20.6665 117.202 21.8782C117.079 21.9191 116.982 21.9871 116.79 22.1097V22.1097Z" fill="#675D55"/>
<path d="M74.7872 12.9742H79.2635C79.2909 13.192 79.3184 13.369 79.3184 13.546C79.3047 17.2082 79.3047 20.8841 79.2635 24.5463C79.2497 25.227 79.1673 25.8941 79.0163 26.5612C78.371 29.4746 76.5859 31.2445 73.5926 31.8027C71.5741 32.1975 69.487 32.1703 67.496 31.7074C64.7361 31.0539 63.0335 28.9981 62.6765 25.9349C62.5529 24.7369 62.4842 23.5388 62.4842 22.3408C62.4568 19.5362 62.4705 16.7317 62.4705 13.9272V12.9742H66.9743V14.0225C66.9743 17.0448 66.9468 20.0672 66.988 23.0896C67.0017 23.9473 67.1253 24.805 67.345 25.6354C67.6059 26.6565 68.3336 27.4053 69.4046 27.555C70.407 27.7048 71.4368 27.7048 72.4392 27.555C73.675 27.3644 74.3203 26.4251 74.5675 25.2542C74.7048 24.5599 74.7734 23.852 74.7734 23.144C74.8009 19.7949 74.7872 16.4322 74.7872 12.9742ZM95.3012 31.6665H92.6511L91.8685 30.6999C90.3855 31.7618 88.7241 32.1022 86.9253 31.9797C84.0556 31.7755 82.0508 30.1962 81.2819 27.4461C80.7876 25.7171 80.7876 23.8928 81.2956 22.1638C82.1195 19.3593 84.495 17.4669 87.4471 17.358C88.6142 17.3171 89.7814 17.4669 91.0172 17.5486V11.8306H95.3012V31.6665ZM91.0034 27.6367V21.4695C90.7425 21.3469 90.5091 21.2108 90.2482 21.1291C88.065 20.3667 86.0877 21.2244 85.5248 23.2121C85.3875 23.6477 85.3188 24.1106 85.3188 24.5735C85.3463 25.9349 85.5797 27.2691 86.9528 27.9635C88.3259 28.6442 89.7127 28.4672 91.0034 27.6367Z" fill="#665C54"/>
<path d="M110.666 25.3224H101.81C101.563 26.5749 102.359 27.8274 103.691 28.2358C105.188 28.6987 106.698 28.5489 108.181 28.0997C108.799 27.9091 109.375 27.6232 110.035 27.3509L109.472 30.6319C108.552 31.4215 107.453 31.7483 106.3 31.8844C104.748 32.0614 103.197 32.0206 101.686 31.5441C99.6265 30.877 98.2259 29.5292 97.5943 27.4734C97.0313 25.6627 97.0038 23.7295 97.5394 21.9188C98.2946 19.2776 100.45 17.535 103.224 17.358C103.993 17.2899 104.776 17.3036 105.545 17.4125C107.673 17.7528 109.156 18.9645 109.952 20.9522C110.515 22.3136 110.721 23.7703 110.666 25.3224ZM101.7 23.2121H107.11C106.986 21.4423 105.723 20.5982 104.501 20.5982C102.936 20.6118 101.92 21.524 101.7 23.2121Z" fill="#675C55"/>
<path d="M139.391 17.6987C139.927 19.2099 140.449 20.7074 140.984 22.205C141.506 23.7162 142.028 25.2274 142.632 26.9564L145.708 17.6851H149.964L142.536 36.3502H138.224L140.27 31.1768L134.627 17.6987H139.391Z" fill="#665C55"/>
<path d="M33.375 20.7211L32.7571 21.9873C30.8073 26.303 28.679 30.537 25.9054 34.4171C24.4362 36.4728 22.8022 38.3652 20.7288 39.8628C18.8614 41.197 16.8018 42.0138 14.4675 42.0002C11.9273 41.9866 9.88136 40.9519 8.37095 38.9234C6.99786 37.0719 6.44862 34.9344 6.28385 32.6744C6.06415 29.6521 6.58593 26.7114 7.27248 23.7979C7.43725 23.1172 7.57456 22.4365 7.75306 21.6333C7.13517 21.9872 6.61339 22.3004 6.09161 22.5727C5.21283 23.0492 4.27913 23.3351 3.26304 23.3078C1.27205 23.2125 -0.0186605 21.7694 0.0362633 19.7409C1.50548 18.4748 2.98842 17.3312 4.30659 16.0106C7.80798 12.5117 10.4855 8.42745 12.5314 3.94835C12.8198 3.28125 13.1631 2.62777 13.5338 2.00151C14.5087 0.449487 16.074 -0.24484 17.6943 0.0955163C19.2459 0.422259 20.2208 1.57947 20.5366 3.43101C20.9485 5.81351 20.4542 8.11432 19.905 10.4015C18.8065 14.8942 17.6531 19.3869 16.5821 23.8932C16.0603 26.0988 15.7719 28.3451 15.923 30.6187C15.9642 31.2858 16.1015 31.9529 16.3212 32.5791C16.788 33.8044 17.8728 34.1176 18.8889 33.2735C19.5205 32.7289 20.0835 32.1299 20.5915 31.4764C23.4613 27.8686 25.823 23.9341 27.9376 19.8634C29.7363 16.3918 31.5076 12.9065 33.3064 9.4349C33.6085 8.83587 33.9655 8.26407 34.3087 7.69228C35.6544 5.50038 38.9361 5.69098 40.2542 7.85565C40.9682 9.02647 41.3115 10.3334 41.4076 11.6813C41.5175 13.0835 41.5449 14.4858 41.5999 15.8881C41.7235 18.9377 41.8333 21.9872 41.9843 25.0368C42.0255 25.6086 42.1491 26.1804 42.3688 26.725C42.767 27.7461 43.5222 28.1273 44.5795 27.8142C45.1699 27.6508 45.7329 27.3921 46.2272 27.0381C47.6278 25.9898 48.9597 24.8735 50.4151 23.7026C51.0193 23.8796 51.3763 24.4106 51.5823 25.0777C51.9667 26.3438 51.7196 27.5691 51.2527 28.7399C49.9483 32.0346 47.3669 33.8861 44.0028 34.6213C42.7121 34.88 41.3802 34.9344 40.062 34.7574C37.4943 34.4443 35.7779 32.9059 34.7756 30.5642C33.8419 28.386 33.6222 26.0851 33.5261 23.7571C33.4849 22.7633 33.5261 21.7694 33.5261 20.762L33.375 20.7211V20.7211Z" fill="#EC5250"/>
</g>
<defs>
<clipPath id="clip0_46_495">
<rect width="150" height="42" fill="white"/>
</clipPath>
</defs>
</svg>
