<svg width="120" height="33" viewBox="0 0 120 33" fill="none" xmlns="http://www.w3.org/2000/svg">
<g clip-path="url(#clip0_46_501)">
<path d="M119.261 28.709C119.261 26.875 117.95 25.532 116.144 25.532C114.341 25.532 113.029 26.875 113.029 28.709C113.029 30.5401 114.341 31.8808 116.144 31.8808C117.95 31.8808 119.261 30.5378 119.261 28.709ZM115.325 28.8719V30.9471H114.65V26.3713H116.329C117.313 26.3713 117.764 26.7976 117.764 27.6287C117.764 28.1406 117.416 28.5461 116.966 28.6048V28.6242C117.356 28.6859 117.5 29.0312 117.58 29.6629C117.641 30.0721 117.723 30.7819 117.87 30.9485H117.071C116.885 30.5185 116.903 29.9099 116.76 29.4002C116.642 29.0126 116.433 28.8712 115.985 28.8712H115.329V28.8734L115.325 28.8719V28.8719ZM116.163 28.2804C116.819 28.2804 117.007 27.9337 117.007 27.6279C117.007 27.2663 116.819 26.9806 116.163 26.9806H115.325V28.2819H116.163V28.2804ZM112.286 28.709C112.286 26.4494 114.094 24.9219 116.141 24.9219C118.195 24.9219 120.001 26.4494 120.001 28.709C120.001 30.9642 118.196 32.4932 116.141 32.4932C114.094 32.4932 112.286 30.9642 112.286 28.709Z" fill="#FF5A00"/>
<path d="M98.9232 31.8329L94.478 26.8873L90.0718 31.8329H80.8005L89.8618 21.7333L80.8005 11.6309H90.3613L94.8515 16.5385L99.1722 11.6309H108.398L99.3821 21.6909L108.524 31.8329H98.9232ZM62.9973 31.8329V0.00830078H80.8005V7.10192H70.5384V11.6309H80.8005V18.4566H70.5384V24.7214H80.8005V31.8329H62.9973Z" fill="#FF5A00"/>
<path d="M55.484 0.00830078V13.0326H55.4007C53.738 11.1368 51.6598 10.4761 49.2501 10.4761C44.3122 10.4761 40.5922 13.8086 39.2865 18.2111C37.797 13.3592 33.9564 10.3853 28.2625 10.3853C23.6373 10.3853 19.9864 12.4441 18.0792 15.7997V11.6301H8.52059V7.10266H18.9529V0.00979087H-9.53674e-07V31.8329H8.52059V18.4566H17.0134C16.7518 19.4852 16.6211 20.5423 16.6242 21.6031C16.6242 28.2384 21.7353 32.9013 28.261 32.9013C33.7464 32.9013 37.3643 30.344 39.276 25.6886H31.9734C30.9864 27.0896 30.2364 27.5033 28.2617 27.5033C25.9728 27.5033 23.9973 25.5212 23.9973 23.1745H38.8665C39.5115 28.446 43.6514 32.9913 49.3333 32.9913C51.7843 32.9913 54.0282 31.7957 55.4 29.7756H55.4825V31.8373H62.9951V0.00979087H55.484V0.00830078V0.00830078ZM24.2343 18.5519C24.709 16.5296 26.2893 15.2082 28.2617 15.2082C30.4337 15.2082 31.9336 16.4886 32.3274 18.5519H24.2343ZM50.9248 26.9899C48.1566 26.9899 46.4361 24.4312 46.4361 21.7586C46.4361 18.9015 47.9331 16.1568 50.9248 16.1568C54.029 16.1568 55.2657 18.903 55.2657 21.7586C55.2657 24.4654 53.9562 26.9899 50.9248 26.9899Z" fill="#29007C"/>
</g>
<defs>
<clipPath id="clip0_46_501">
<rect width="120" height="33" fill="white"/>
</clipPath>
</defs>
</svg>
