<svg width="180" height="23" viewBox="0 0 180 23" fill="none" xmlns="http://www.w3.org/2000/svg">
<path fill-rule="evenodd" clip-rule="evenodd" d="M150.849 20.554C148.988 21.8738 146.71 22.6004 144.312 22.5983C137.965 22.5963 132.925 17.7016 132.927 11.3027C132.929 4.94768 138.004 -0.00305586 144.263 1.41522e-06C149.669 0.0020396 154.852 3.84197 154.85 9.67321C154.85 12.7723 153.546 16.4736 150.147 16.4716C148.984 16.4716 148.132 16.0833 147.167 14.7717L144.811 11.0979L147.739 6.55479L150.147 6.55581L147.123 11.0948L148.437 13.1982C148.93 13.9187 149.466 14.574 150.149 14.5761C152.217 14.5761 152.724 11.3853 152.724 9.82506C152.726 4.90285 148.633 1.85475 144.199 1.85271C138.974 1.85067 135.117 6.04117 135.115 11.3017C135.113 16.7916 139.273 20.7742 144.404 20.7762C146.403 20.7709 148.352 20.1449 149.98 18.9846L150.849 20.554V20.554Z" fill="#284890"/>
<path fill-rule="evenodd" clip-rule="evenodd" d="M137.75 6.55078L139.751 6.5518L139.749 12.9507C139.749 13.6793 139.776 13.8485 139.92 14.1155C140.139 14.5476 140.603 14.784 141.248 14.786C142.102 14.786 142.647 14.3662 142.731 13.6538C142.76 13.4408 142.76 13.3012 142.76 12.7835L142.764 6.55384H144.753L144.749 13.1076C144.749 14.0329 144.734 14.2143 144.594 14.6322C144.341 15.4046 143.389 16.4655 141.29 16.4635C139.805 16.4635 138.726 16.0171 138.167 15.1641C137.845 14.6587 137.747 14.2663 137.749 13.3287L137.75 6.55078V6.55078Z" fill="#CC2131"/>
<path fill-rule="evenodd" clip-rule="evenodd" d="M0 22.3598V0.772425H11.0398L10.09 3.36092H2.91562V10.0431H10.0238V12.598H2.91562V19.7713H11.105V22.3598H0V22.3598ZM31.4145 11.3536C31.4145 15.8091 29.1542 19.7724 22.8317 19.7724H20.2432V3.36092H22.8643C28.7282 3.36092 31.4145 6.89818 31.4145 11.3536ZM34.4606 11.3536C34.4606 5.29312 30.7266 0.772425 22.635 0.772425H17.3276V22.3598H22.635C30.5962 22.3598 34.4606 17.4784 34.4606 11.3536V11.3536ZM54.9341 20.4602C53.5909 21.836 51.5273 22.688 48.5138 22.688C45.6971 22.688 43.7638 21.9359 42.4869 20.7211C40.8156 19.0835 40.3906 16.6611 40.3906 14.5312V0.772425H43.3052V14.466C43.3052 15.9732 43.666 17.6109 44.7473 18.7258C45.5656 19.5757 46.8109 20.1331 48.579 20.1331C50.5775 20.1331 51.9206 19.6093 52.7716 18.7258C53.6888 17.7423 54.0495 16.3013 54.0495 14.6637V0.773444H56.9651V14.8583C56.9651 16.9872 56.3435 19.0192 54.9341 20.4602V20.4602ZM73.5733 22.688C67.0215 22.688 63.0583 18.0368 63.0583 11.8122C63.0583 5.55502 67.5137 0.609375 74.1307 0.609375C76.6203 0.609375 78.5525 1.19943 79.6664 1.85369L79.6338 4.73669C77.9961 3.72065 76.4237 3.13162 74.0971 3.13162C69.2156 3.13162 66.2022 6.8992 66.2022 11.6156C66.2022 16.498 69.1178 20.0669 73.9666 20.0669C75.8336 20.0669 77.6017 19.5115 79.109 18.6911L79.9609 20.9525C77.832 22.1642 75.6695 22.688 73.5733 22.688V22.688ZM96.3978 14.203H90.0428L92.4346 7.65231C92.8269 6.60468 93.0899 5.78534 93.2866 4.9986H93.3181C93.4832 5.7191 93.7441 6.60367 94.1385 7.68492L96.3978 14.203ZM102.688 22.3598L94.27 0.707208H92.401L84.1137 22.3598H86.9967L89.0278 16.7273H97.3813L99.5764 22.3598H102.688V22.3598ZM118.764 3.36092H112.737V22.3598H109.789V3.36092H103.597V0.772425H119.649L118.764 3.36092ZM124.365 22.3598V0.772425H127.28V22.3598H124.365V22.3598ZM176.384 22.3598L165.837 8.43803C164.657 6.93079 164.068 6.07985 163.609 5.22789H163.544C163.609 5.94941 163.642 6.83296 163.642 7.91422V22.3598H160.726V0.772425H163.708L173.829 14.1704C175.141 15.9059 175.762 16.7263 176.188 17.6098H176.253C176.212 16.6715 176.19 15.7323 176.188 14.7931V0.772425H179.103V22.3598H176.384V22.3598Z" fill="#284890"/>
</svg>
