<svg width="156" height="37" viewBox="0 0 156 37" fill="none" xmlns="http://www.w3.org/2000/svg">
<path fill-rule="evenodd" clip-rule="evenodd" d="M52.616 31.0132H51.5523V36.2462H55.1967V35.3031H52.612V31.0161L52.616 31.0132ZM89.0252 36.2462H90.0889V31.0132H89.0252V36.2462ZM58.9743 34.0375H61.5113V33.0904H58.9743V31.9612H61.6972V31.0132H57.9146V36.2462H61.717V35.3031H58.9743V34.0365V34.0375ZM46.4833 33.1255L45.1343 31.0132H43.8678L45.9276 34.131V36.2482H46.9913V34.129L49.0302 31.0113H47.7925L46.4833 33.1255ZM11.271 36.2433H12.3287V31.0132H11.268V36.2462L11.271 36.2433ZM16.324 36.2433H17.3837V34.0384H19.6245V33.0904H17.3837V31.9612H19.9396V31.0132H16.324V36.2462V36.2433ZM37.5602 31.9563H39.1865V36.2433H40.2502V31.9563H41.8766V31.0132H37.5602V31.9612V31.9563ZM24.6159 34.0384H27.1479V33.0904H24.6159V31.9612H27.3397V31.0132H23.5522V36.2462H27.3547V35.3031H24.6159V34.0365V34.0384ZM5.30133 31.0181H4.24161V36.2511H7.88601V35.3031H5.30133V31.0161V31.0181ZM34.5669 33.5708C34.3991 33.4528 34.2132 33.3617 34.0162 33.3009C33.8228 33.2353 33.626 33.1797 33.4267 33.1343C33.2557 33.0945 33.0844 33.0562 32.9127 33.0193L32.8521 33.0066C32.6899 32.9753 32.5312 32.9289 32.3779 32.8683C32.2727 32.8314 32.1775 32.7714 32.0995 32.6929C32.0722 32.6628 32.0514 32.6276 32.0382 32.5895C32.0251 32.5513 32.0199 32.5109 32.023 32.4708C32.0206 32.3693 32.0441 32.2688 32.0916 32.1785C32.1316 32.1019 32.1934 32.0383 32.2695 31.9953C32.3563 31.9435 32.452 31.9075 32.5519 31.8891C32.6691 31.8641 32.7888 31.852 32.9087 31.8531C33.1604 31.8378 33.4099 31.9064 33.6165 32.0479C33.7088 32.1211 33.7834 32.2134 33.835 32.3182C33.8865 32.423 33.9138 32.5376 33.9148 32.6539L33.9347 32.8361H34.9506L34.9417 32.6267C34.9406 32.3621 34.8813 32.1009 34.7677 31.8609C34.6679 31.6453 34.5169 31.4562 34.3273 31.3094C34.1399 31.164 33.9235 31.0584 33.6921 30.9996C33.2157 30.8693 32.7121 30.8693 32.2357 30.9996C32.0076 31.054 31.7923 31.1509 31.6015 31.285C31.4081 31.4139 31.2495 31.5867 31.1392 31.7888C31.018 32.0143 30.9581 32.2666 30.9653 32.5214C30.9532 32.7357 31.0006 32.9491 31.1025 33.1391C31.2044 33.329 31.3569 33.4883 31.5438 33.6C31.7158 33.7084 31.9025 33.7924 32.0985 33.8494C32.2974 33.905 32.4862 33.9566 32.6851 34.0004L32.7875 34.017C32.9455 34.053 33.1026 34.0881 33.2557 34.1203C33.4155 34.1499 33.5708 34.1994 33.7179 34.2674C33.8261 34.3101 33.9228 34.3768 34.0003 34.4623C34.0594 34.5413 34.0883 34.6382 34.0818 34.736C34.0861 34.849 34.0593 34.9611 34.0043 35.0605C33.9515 35.1425 33.8778 35.2097 33.7905 35.2553C33.6858 35.3126 33.5723 35.3531 33.4545 35.3752C33.1627 35.4367 32.8599 35.427 32.5727 35.3469C32.4346 35.3161 32.3048 35.2566 32.192 35.1725C32.0842 35.0957 31.9958 34.9957 31.9335 34.8802C31.8647 34.7476 31.8306 34.6003 31.8341 34.4515V34.2567H30.8092V34.4584C30.8048 34.7522 30.867 35.0434 30.9911 35.3109C31.1085 35.5446 31.2784 35.7491 31.4882 35.9091C31.7004 36.064 31.9405 36.1784 32.196 36.2462C32.4668 36.322 32.7474 36.3594 33.029 36.3573C33.2713 36.3562 33.5128 36.3284 33.7488 36.2745C33.9887 36.2206 34.2174 36.1267 34.4248 35.9968C34.6302 35.8645 34.8039 35.6899 34.9337 35.4853C35.077 35.2554 35.1488 34.9897 35.1405 34.7204C35.1476 34.4796 35.0933 34.2408 34.9825 34.0258C34.8816 33.8436 34.7395 33.6866 34.5669 33.5669V33.5708ZM128.598 31.9651H130.224V36.2521H131.284V31.9651H132.914V31.0132H128.602V31.9612L128.598 31.9651ZM144.025 31.7556C143.827 31.498 143.573 31.2867 143.281 31.1369C142.957 30.9843 142.603 30.9051 142.243 30.9051C141.884 30.9051 141.53 30.9843 141.206 31.1369C140.915 31.2862 140.662 31.4976 140.466 31.7556C140.264 32.0177 140.114 32.3153 140.025 32.6325C139.929 32.9587 139.88 33.2965 139.88 33.636C139.88 33.9765 139.929 34.3153 140.025 34.6425C140.114 34.9597 140.264 35.2573 140.466 35.5194C140.664 35.7775 140.918 35.9889 141.21 36.1381C141.532 36.2927 141.887 36.3702 142.246 36.3641C142.605 36.3697 142.96 36.2909 143.281 36.1342C143.572 35.9859 143.827 35.7759 144.025 35.5194C144.225 35.2579 144.373 34.9621 144.463 34.6474C144.561 34.316 144.61 33.9724 144.608 33.6273C144.61 33.2876 144.561 32.9495 144.463 32.6237C144.374 32.3084 144.226 32.0123 144.025 31.7508V31.7556ZM143.597 33.6273C143.596 33.8545 143.567 34.0808 143.512 34.3015C143.462 34.5054 143.377 34.6997 143.262 34.8763C143.156 35.0366 143.013 35.1701 142.844 35.2661C142.66 35.3628 142.453 35.4134 142.244 35.4134C142.034 35.4134 141.828 35.3628 141.643 35.2661C141.475 35.1706 141.332 35.0369 141.227 34.8763C141.109 34.7007 141.024 34.5061 140.975 34.3015C140.922 34.0805 140.895 33.8543 140.895 33.6273C140.895 33.4019 140.922 33.1772 140.975 32.9579C141.025 32.7524 141.11 32.5566 141.227 32.3792C141.335 32.2207 141.477 32.0875 141.643 31.9895C141.827 31.8897 142.036 31.8406 142.246 31.8472C142.454 31.8409 142.66 31.8901 142.842 31.9895C143.009 32.0881 143.151 32.2211 143.26 32.3792C143.376 32.5569 143.461 32.7525 143.51 32.9579C143.567 33.1768 143.596 33.4016 143.597 33.6273V33.6273ZM135.628 36.2433H136.692V31.0132H135.628V36.2462V36.2433ZM150.609 31.3864V34.5899L148.404 31.4721L148.344 31.3854H147.339V36.2696H148.366V33.1031L150.553 36.1839L150.613 36.2715H151.636V31.3864H150.609ZM125.028 31.0132H124.029L121.966 36.2462H123.078L123.624 34.7955H125.397L125.931 36.2462H127.095L125.081 31.1447L125.028 31.0132ZM125.049 33.8475H123.98L124.519 32.3811L125.049 33.8475ZM96.9354 34.4623L94.6698 31.0132H93.6628V36.2462H94.6907V32.841L96.9314 36.2462H97.9623V31.0132H96.9374V34.4623H96.9354ZM104.771 34.4623L102.57 31.1087L102.509 31.0171H101.5V36.2501H102.527V32.84L104.773 36.2501H105.8V31.0132H104.773V34.4574L104.771 34.4623ZM113.18 31.7508C112.963 31.4899 112.689 31.2787 112.38 31.1321C112.031 30.9793 111.653 30.9004 111.271 30.9004C110.889 30.9004 110.512 30.9793 110.163 31.1321C109.855 31.2776 109.584 31.4875 109.368 31.7469C109.152 32.0071 108.987 32.3045 108.883 32.6237C108.78 32.9487 108.728 33.2871 108.728 33.6273C108.728 33.971 108.78 34.3128 108.883 34.6415C108.987 34.9604 109.15 35.2576 109.364 35.5184C109.581 35.7789 109.855 35.9886 110.165 36.1322C110.515 36.2815 110.892 36.3586 111.273 36.3586C111.655 36.3586 112.032 36.2815 112.382 36.1322C112.69 35.9895 112.961 35.7815 113.177 35.5233C113.395 35.2648 113.558 34.9668 113.658 34.6464C113.765 34.317 113.819 33.973 113.817 33.6273C113.82 33.2857 113.766 32.9459 113.659 32.6208C113.56 32.3015 113.398 32.0045 113.182 31.7469L113.18 31.7508ZM112.754 33.6273C112.754 33.8536 112.724 34.079 112.664 34.2976C112.615 34.5021 112.524 34.6949 112.398 34.8646C112.281 35.0314 112.124 35.1675 111.94 35.2612C111.734 35.3591 111.507 35.41 111.277 35.41C111.047 35.41 110.82 35.3591 110.613 35.2612C110.43 35.1661 110.272 35.0303 110.152 34.8646C110.029 34.6931 109.939 34.5009 109.886 34.2976C109.827 34.0775 109.797 33.8509 109.796 33.6234C109.797 33.3986 109.825 33.1748 109.882 32.957C109.937 32.7496 110.03 32.5537 110.156 32.3782C110.284 32.2044 110.453 32.0628 110.647 31.9652C110.842 31.8676 111.058 31.8167 111.277 31.8167C111.496 31.8167 111.711 31.8676 111.906 31.9652C112.101 32.0628 112.27 32.2044 112.398 32.3782C112.523 32.5515 112.615 32.7461 112.668 32.9521C112.726 33.1727 112.754 33.3996 112.754 33.6273V33.6273ZM118.359 34.7653L117.155 31.1496L117.106 31.0113H115.97L117.83 36.2443H118.857L120.738 31.0113H119.622L118.359 34.7653Z" fill="#727171"/>
<path fill-rule="evenodd" clip-rule="evenodd" d="M120.325 2.79922C119.449 1.94785 118.265 1.47167 117.031 1.47514H101.5C100.889 1.47321 100.283 1.58932 99.718 1.81685C99.1525 2.04437 98.6384 2.37885 98.2048 2.80117C97.3131 3.93279 96.833 5.32413 96.8409 6.75393V16.6139C96.8327 18.0617 97.3121 19.4717 98.2048 20.6251C98.6384 21.0474 99.1526 21.3817 99.718 21.6091C100.283 21.8365 100.889 21.9524 101.5 21.9502H117.029C117.64 21.9523 118.245 21.8363 118.811 21.6089C119.376 21.3816 119.89 21.0473 120.323 20.6251C121.216 19.4718 121.696 18.0618 121.688 16.6139V6.75199C121.695 5.32207 121.215 3.93072 120.323 2.79922H120.325ZM116.76 16.0293C116.76 16.4639 116.586 16.268 116.263 16.5759C116.107 16.728 115.922 16.8484 115.719 16.9302C115.516 17.012 115.298 17.0535 115.078 17.0524H103.547C103.103 17.0539 102.676 16.8825 102.36 16.5759C102.044 16.269 101.87 16.4649 101.87 16.0293V7.94259C101.87 7.72864 101.913 7.51676 101.997 7.31935C102.081 7.12194 102.205 6.94297 102.36 6.79291C102.676 6.48623 103.103 6.31457 103.547 6.3155H115.085C115.305 6.31466 115.523 6.3564 115.726 6.43833C115.929 6.52026 116.114 6.64076 116.27 6.79291C116.427 6.94219 116.552 7.12087 116.637 7.31836C116.723 7.51584 116.767 7.72811 116.767 7.94259V16.0293H116.76ZM151.46 5.9891C151.462 5.39473 151.342 4.80611 151.107 4.25793C150.873 3.70975 150.529 3.21311 150.095 2.79727C149.181 1.94392 147.965 1.47018 146.702 1.47514H125.719V21.9492H130.647V7.93479C130.646 7.72048 130.69 7.50826 130.774 7.31052C130.858 7.11278 130.982 6.9335 131.138 6.78316C131.453 6.47784 131.879 6.30757 132.323 6.30965H133.933C134.377 6.30725 134.803 6.47757 135.118 6.78316C135.275 6.93292 135.4 7.11196 135.485 7.30974C135.571 7.50752 135.615 7.72004 135.615 7.93479V21.9492H140.569V7.93479C140.569 7.72001 140.613 7.50742 140.698 7.30961C140.784 7.1118 140.909 6.93278 141.066 6.78316C141.382 6.47779 141.808 6.30752 142.252 6.30965H144.86C145.304 6.30725 145.73 6.47757 146.045 6.78316C146.203 6.93278 146.328 7.1118 146.413 7.30961C146.498 7.50742 146.542 7.72001 146.542 7.93479V21.9492H151.47V5.9891H151.46ZM72.9952 6.74906C72.9877 5.31975 73.4681 3.92904 74.3601 2.79825C75.2857 1.94399 76.5105 1.4704 77.7818 1.47514H93.8218V6.31257H79.6299C79.4089 6.31098 79.1898 6.35217 78.9851 6.43376C78.7804 6.51535 78.5941 6.63574 78.437 6.78803C78.2813 6.93808 78.1577 7.11703 78.0733 7.31443C77.989 7.51183 77.9457 7.72372 77.9459 7.93772V16.0323C77.9459 16.4658 78.1218 16.27 78.437 16.5779C78.594 16.7304 78.7802 16.851 78.9849 16.9328C79.1896 17.0145 79.4088 17.0558 79.6299 17.0543H93.8238V21.9512H77.7818C76.5108 21.9566 75.2863 21.4824 74.3621 20.6271C73.4691 19.4737 72.9893 18.0637 72.9972 16.6159V6.74809L72.9952 6.74906ZM47.1842 21.9483H32.7974C32.2033 21.9494 31.6152 21.8326 31.0684 21.6049C30.5217 21.3771 30.0277 21.0432 29.6162 20.6232C28.7205 19.4119 28.2424 17.9521 28.2513 16.4561V1.47514H33.2438V15.8744C33.2438 16.3109 33.4177 16.1131 33.7348 16.422C34.0506 16.7269 34.4766 16.8968 34.9198 16.8945H47.1881V21.9483H47.1842ZM4.37581 1.47514H25.2521V6.26483H11.3793C10.936 6.26285 10.5099 6.43312 10.1943 6.73834C10.0392 6.86591 9.91441 7.02511 9.82856 7.20483C9.74272 7.38455 9.69791 7.58047 9.69728 7.77891V8.52522C9.69733 8.74001 9.74134 8.9526 9.82672 9.15041C9.9121 9.34822 10.0371 9.52724 10.1943 9.67686C10.5099 9.98217 10.9359 10.1527 11.3793 10.1513H24.5741V14.0729H11.3793C11.1595 14.0716 10.9415 14.1131 10.7381 14.1949C10.5348 14.2766 10.3499 14.3971 10.1943 14.5494C9.87622 14.8563 9.69728 14.2902 9.69728 14.7238V15.9855C9.69728 16.421 9.87125 16.2242 10.1943 16.5331C10.5096 16.8389 10.9357 17.0099 11.3793 17.0085H25.2521V21.9502H9.0352C7.80126 21.9539 6.61631 21.4773 5.74072 20.6251C5.30719 20.2093 4.96306 19.7125 4.72863 19.1641C4.49421 18.6157 4.37424 18.0269 4.37581 17.4323V1.47514ZM49.1664 1.47514H70.0178V6.30965H56.4194C55.9757 6.30787 55.5495 6.4789 55.2344 6.78511C55.0774 6.93447 54.9525 7.11316 54.8671 7.31063C54.7818 7.50809 54.7377 7.72033 54.7374 7.93479V8.68501C54.7375 8.89979 54.7815 9.11236 54.8669 9.31016C54.9523 9.50797 55.0773 9.68699 55.2344 9.83664C55.5499 10.1421 55.976 10.3127 56.4194 10.3111H68.9671V14.1226H56.4194C56.1996 14.1214 55.9817 14.1629 55.7783 14.2446C55.5749 14.3264 55.3901 14.4469 55.2344 14.5991C54.9163 14.9069 54.7374 14.3409 54.7374 14.7735V16.0401C54.7374 16.4746 54.9124 16.2778 55.2344 16.5866C55.5496 16.8927 55.9758 17.0637 56.4194 17.0621H69.993V21.959H54.0753C52.8411 21.9627 51.6558 21.4861 50.7798 20.6339C49.81 19.4448 49.2457 17.9872 49.1664 16.4668V1.47514ZM79.9401 36.4606V32.5244C79.941 32.19 79.807 31.8688 79.5673 31.6309C79.4498 31.5133 79.3095 31.42 79.1546 31.3564C78.9998 31.2928 78.8335 31.2603 78.6656 31.2607H78.0801C77.9252 31.2609 77.7723 31.2941 77.6319 31.358C77.4914 31.4219 77.3669 31.5151 77.2669 31.6309C77.0268 31.8687 76.8924 32.1899 76.8931 32.5244V36.4606H73.9635V32.5244C73.9641 32.1899 73.8298 31.8687 73.5897 31.6309C73.3017 31.3904 72.9352 31.259 72.5568 31.2607H72.1442C71.9765 31.2602 71.8103 31.2927 71.6556 31.3563C71.5009 31.4199 71.3608 31.5133 71.2436 31.6309C71.1244 31.7485 71.0301 31.8879 70.966 32.0412C70.9018 32.1945 70.8691 32.3587 70.8698 32.5244V36.4606H67.9799V28.7791H82.8409V36.4606H79.9401Z" fill="#014099"/>
</svg>
